<?xml version="1.0" encoding="utf-8"?>
<!-- Generator: Adobe Illustrator 25.4.1, SVG Export Plug-In . SVG Version: 6.00 Build 0)  -->
<svg version="1.1" id="Ebene_1" xmlns="http://www.w3.org/2000/svg" xmlns:xlink="http://www.w3.org/1999/xlink" x="0px" y="0px"
	 viewBox="0 0 36 36" style="enable-background:new 0 0 36 36;" xml:space="preserve">
<style type="text/css">
	.st0{fill:#333333;}
</style>
<g>
	<g>
		<g>
			<circle class="st0" cx="6.2" cy="12.7" r="3.3"/>
		</g>
		<g>
			<circle class="st0" cx="12.2" cy="7.4" r="3.3"/>
		</g>
		<g>
			<circle class="st0" cx="20.2" cy="7.4" r="3.3"/>
		</g>
		<g>
			<circle class="st0" cx="26.2" cy="12.7" r="3.3"/>
		</g>
		<g>
			<path class="st0" d="M24.1,20.7c-0.2,0-0.4,0-0.6,0c-2.8,0-5,2.3-5,5c0,1.3,0.5,2.4,1.2,3.3c-1-0.1-2.2-0.2-3.4-0.2H16
				c-3.3,0-6.4,0.8-7.4,0.6c-1.7-0.4-2.7-1.7-3.1-3.1c-0.4-2.7,1.7-4.6,3.5-6.4c1.2-1.4,2.1-2.5,3.3-3.9c0.6-0.7,1.4-1.4,2.3-1.8
				c0.1-0.1,0.3-0.1,0.4-0.1c0.3-0.1,0.7-0.1,1.1-0.1c0.3,0,0.7,0,1,0.1c0.1,0,0.3,0.1,0.4,0.1c0.9,0.3,1.7,1,2.3,1.8
				c1.2,1.4,2.1,2.5,3.3,3.9C23.6,20.1,23.8,20.4,24.1,20.7z"/>
		</g>
	</g>
	<g>
		<path class="st0" d="M33.1,30.1c0,1-0.9,1.9-1.9,1.9c-1.1,0-1.9-0.9-1.9-1.9c0-0.2,0-0.3,0.1-0.4l-4.2-2.5l-0.4-0.2
			c-0.4,0.3-0.8,0.5-1.3,0.5c-1.1,0-2-0.9-2-2c0-1.1,0.9-2,2-2c0.5,0,1,0.2,1.3,0.5l0.6-0.4l4-2.3c0-0.2-0.1-0.3-0.1-0.5
			c0-1.1,0.9-2,2-2c1.1,0,2,0.9,2,2c0,1.1-0.9,2-2,2c-0.5,0-1-0.2-1.3-0.5l-4.2,2.4L25.2,25c0,0.1,0.1,0.3,0.1,0.5
			c0,0.2,0,0.3-0.1,0.5l0.4,0.2l4.3,2.5c0.3-0.3,0.8-0.5,1.3-0.5C32.2,28.1,33.1,29,33.1,30.1z"/>
	</g>
</g>
</svg>
