<svg xmlns="http://www.w3.org/2000/svg" viewBox="0 0 80 110.35"><defs><style>.cls-1{fill:#ba5532;}</style></defs><g id="Ebene_2" data-name="Ebene 2"><g id="Ebene_1-2" data-name="Ebene 1"><path class="cls-1" d="M76.61,23.87A40,40,0,0,0,43.26.18C42.55,0,41.79.28,41.08,0H38.92c-.71.28-1.47,0-2.18.18a25.13,25.13,0,0,0-4.49.61A39.08,39.08,0,0,0,7.91,16.21a38.46,38.46,0,0,0-7,31.64C2.36,55.37,5.45,62.3,9,69,16.63,83.4,26.3,96.35,36.89,108.64c2,2.29,4.23,2.28,6.22,0q4.22-4.83,8.15-9.9c8.87-11.32,16.95-23.14,22.93-36.28a60.66,60.66,0,0,0,5.59-18.76A38.39,38.39,0,0,0,76.61,23.87ZM40,60.07A20.12,20.12,0,1,1,60.11,40,20.16,20.16,0,0,1,40,60.07Z"/></g></g></svg>